{
  "accessors": [
    {
      "bufferView": 2,
      "componentType": 5126,
      "count": 68,
      "max": [
        20.975502014160156,
        2.0406060218811035,
        166.4945068359375
      ],
      "min": [
        -21.024496078491211,
        1.5906070470809937,
        30.049341201782227
      ],
      "type": "VEC3"
    },
    {
      "bufferView": 2,
      "byteOffset": 816,
      "componentType": 5126,
      "count": 68,
      "max": [
        1,
        1,
        0.99860513210296631
      ],
      "min": [
        -1,
        -1,
        -1
      ],
      "type": "VEC3"
    },
    {
      "bufferView": 1,
      "componentType": 5126,
      "count": 68,
      "max": [
        0,
        0
      ],
      "min": [
        0,
        0
      ],
      "type": "VEC2"
    },
    {
      "bufferView": 0,
      "componentType": 5125,
      "count": 180,
      "max": [
        67
      ],
      "min": [
        0
      ],
      "type": "SCALAR"
    },
    {
      "bufferView": 2,
      "byteOffset": 1632,
      "componentType": 5126,
      "count": 83,
      "max": [
        20.975502014160156,
        2.4906060695648193,
        166.4945068359375
      ],
      "min": [
        -21.024496078491211,
        2.0406060218811035,
        30.049341201782227
      ],
      "type": "VEC3"
    },
    {
      "bufferView": 2,
      "byteOffset": 2628,
      "componentType": 5126,
      "count": 83,
      "max": [
        1,
        1,
        0.99859988689422607
      ],
      "min": [
        -1,
        -1,
        -1
      ],
      "type": "VEC3"
    },
    {
      "bufferView": 0,
      "byteOffset": 720,
      "componentType": 5125,
      "count": 270,
      "max": [
        82
      ],
      "min": [
        0
      ],
      "type": "SCALAR"
    },
    {
      "bufferView": 2,
      "byteOffset": 3624,
      "componentType": 5126,
      "count": 7587,
      "max": [
        32.741188049316406,
        3.8815839290618896,
        174.58953857421875
      ],
      "min": [
        -32.741188049316406,
        -1.5532040596008301,
        8.4705524444580078
      ],
      "type": "VEC3"
    },
    {
      "bufferView": 2,
      "byteOffset": 94668,
      "componentType": 5126,
      "count": 7587,
      "max": [
        1,
        1,
        1
      ],
      "min": [
        -1,
        -1,
        -1
      ],
      "type": "VEC3"
    },
    {
      "bufferView": 3,
      "componentType": 5126,
      "count": 7587,
      "max": [
        1,
        1,
        1,
        1
      ],
      "min": [
        -1,
        -1,
        -1,
        -1
      ],
      "type": "VEC4"
    },
    {
      "bufferView": 1,
      "byteOffset": 544,
      "componentType": 5126,
      "count": 7587,
      "max": [
        0.99581199884414673,
        0.99813699722290039
      ],
      "min": [
        0.0018619999755173922,
        0.0018619999755173922
      ],
      "type": "VEC2"
    },
    {
      "bufferView": 0,
      "byteOffset": 1800,
      "componentType": 5125,
      "count": 21792,
      "max": [
        7586
      ],
      "min": [
        0
      ],
      "type": "SCALAR"
    },
    {
      "bufferView": 2,
      "byteOffset": 185712,
      "componentType": 5126,
      "count": 9840,
      "max": [
        32.090095520019531,
        24.883028030395508,
        172.9283447265625
      ],
      "min": [
        -32.090095520019531,
        -22.455238342285156,
        -0.017846999689936638
      ],
      "type": "VEC3"
    },
    {
      "bufferView": 2,
      "byteOffset": 303792,
      "componentType": 5126,
      "count": 9840,
      "max": [
        1,
        0.99999892711639404,
        0.99999892711639404
      ],
      "min": [
        -1,
        -0.99999892711639404,
        -1
      ],
      "type": "VEC3"
    },
    {
      "bufferView": 3,
      "byteOffset": 121392,
      "componentType": 5126,
      "count": 9840,
      "max": [
        1,
        0.9999997615814209,
        0.99999904632568359,
        1
      ],
      "min": [
        -1,
        -0.99999982118606567,
        -0.99999898672103882,
        -1
      ],
      "type": "VEC4"
    },
    {
      "bufferView": 1,
      "byteOffset": 61240,
      "componentType": 5126,
      "count": 9840,
      "max": [
        0.97198700904846191,
        0.96672999858856201
      ],
      "min": [
        0.0018649999983608723,
        0.0018639999907463789
      ],
      "type": "VEC2"
    },
    {
      "bufferView": 0,
      "byteOffset": 88968,
      "componentType": 5125,
      "count": 39108,
      "max": [
        9839
      ],
      "min": [
        0
      ],
      "type": "SCALAR"
    }
  ],
  "asset": {
    "extras": {
      "author": "Interiors3D (https://sketchfab.com/Interiors3D)",
      "license": "CC-BY-4.0 (http://creativecommons.org/licenses/by/4.0/)",
      "source": "https://sketchfab.com/3d-models/ppxa00-f1b08b4e929c4198bd7dcf82e70b81b7",
      "title": "PPXA00"
    },
    "generator": "Sketchfab-7.68.0",
    "version": "2.0"
  },
  "bufferViews": [
    {
      "buffer": 0,
      "byteLength": 245400,
      "byteOffset": 0,
      "name": "floatBufferViews",
      "target": 34963
    },
    {
      "buffer": 0,
      "byteLength": 139960,
      "byteOffset": 245400,
      "byteStride": 8,
      "name": "floatBufferViews",
      "target": 34962
    },
    {
      "buffer": 0,
      "byteLength": 421872,
      "byteOffset": 385360,
      "byteStride": 12,
      "name": "floatBufferViews",
      "target": 34962
    },
    {
      "buffer": 0,
      "byteLength": 278832,
      "byteOffset": 807232,
      "byteStride": 16,
      "name": "floatBufferViews",
      "target": 34962
    }
  ],
  "buffers": [
    {
      "byteLength": 1086064,
      "uri": "scene.bin"
    }
  ],
  "images": [
    {
      "uri": "textures/Mirror_baseColor.png"
    },
    {
      "uri": "textures/ppxa_painted_wood_bevel_mask_baseColor.png"
    },
    {
      "uri": "textures/ppxa_painted_wood_bevel_mask_metallicRoughness.png"
    },
    {
      "uri": "textures/ppxa_painted_wood_bevel_mask_normal.png"
    }
  ],
  "materials": [
    {
      "alphaMode": "BLEND",
      "doubleSided": true,
      "name": "Mirror",
      "pbrMetallicRoughness": {
        "baseColorFactor": [
          0.81582031424339707,
          0.81930244403148555,
          0.79489482541773848,
          1
        ],
        "baseColorTexture": {
          "index": 0,
          "texCoord": 0
        },
        "metallicFactor": 0.34927591463414637,
        "roughnessFactor": 0
      }
    },
    {
      "doubleSided": true,
      "name": "Mirror_base",
      "pbrMetallicRoughness": {
        "baseColorFactor": [
          0.68317165769449584,
          0.67476285586194829,
          0.61702520552172835,
          1
        ],
        "metallicFactor": 0,
        "roughnessFactor": 0.69999999999999996
      }
    },
    {
      "doubleSided": true,
      "name": "ppxa_painted_wood_bevel_mask",
      "normalTexture": {
        "index": 3,
        "scale": 0.59999999999999998,
        "texCoord": 0
      },
      "pbrMetallicRoughness": {
        "baseColorFactor": [
          1,
          1,
          1,
          1
        ],
        "baseColorTexture": {
          "index": 1,
          "texCoord": 0
        },
        "metallicFactor": 0,
        "metallicRoughnessTexture": {
          "index": 2,
          "texCoord": 0
        },
        "roughnessFactor": 1
      }
    }
  ],
  "meshes": [
    {
      "primitives": [
        {
          "attributes": {
            "NORMAL": 1,
            "POSITION": 0,
            "TEXCOORD_0": 2
          },
          "indices": 3,
          "material": 0,
          "mode": 4
        }
      ]
    },
    {
      "primitives": [
        {
          "attributes": {
            "NORMAL": 5,
            "POSITION": 4
          },
          "indices": 6,
          "material": 1,
          "mode": 4
        }
      ]
    },
    {
      "primitives": [
        {
          "attributes": {
            "NORMAL": 8,
            "POSITION": 7,
            "TANGENT": 9,
            "TEXCOORD_0": 10
          },
          "indices": 11,
          "material": 2,
          "mode": 4
        }
      ]
    },
    {
      "primitives": [
        {
          "attributes": {
            "NORMAL": 13,
            "POSITION": 12,
            "TANGENT": 14,
            "TEXCOORD_0": 15
          },
          "indices": 16,
          "material": 2,
          "mode": 4
        }
      ]
    }
  ],
  "nodes": [
    {
      "children": [
        1
      ],
      "name": "RootNode (gltf orientation matrix)",
      "rotation": [
        -0.70710678118654746,
        -0,
        -0,
        0.70710678118654757
      ]
    },
    {
      "children": [
        2
      ],
      "name": "RootNode (model correction matrix)"
    },
    {
      "children": [
        3,
        4,
        5,
        6
      ],
      "name": "W05 - PPXA00 - Sketchfab - mesh.obj.cleaner.materialmerger.gles"
    },
    {
      "mesh": 0,
      "name": ""
    },
    {
      "mesh": 1,
      "name": ""
    },
    {
      "mesh": 2,
      "name": ""
    },
    {
      "mesh": 3,
      "name": ""
    }
  ],
  "samplers": [
    {
      "magFilter": 9729,
      "minFilter": 9987,
      "wrapS": 10497,
      "wrapT": 10497
    }
  ],
  "scene": 0,
  "scenes": [
    {
      "name": "OSG_Scene",
      "nodes": [
        0
      ]
    }
  ],
  "textures": [
    {
      "sampler": 0,
      "source": 0
    },
    {
      "sampler": 0,
      "source": 1
    },
    {
      "sampler": 0,
      "source": 2
    },
    {
      "sampler": 0,
      "source": 3
    }
  ]
}

